# AST/ASF file generated using VICON BodyLanguage
# -----------------------------------------------
:version 1.10
:name VICON
:units
  mass 1.0
  length 0.45
  angle deg
:documentation
   .ast/.asf automatically generated from VICON data using
   VICON BodyBuilder and BodyLanguage model FoxedUp or BRILLIANT.MOD
:root
   order TX TY TZ RX RY RZ
   axis XYZ
   position 0 0 0  
   orientation 0 -0 0 
:bonedata
  begin
     id 1 
     name lhipjoint
     direction 0.500677 -0.737119 0.453848 
     length 2.34727 
     axis 0 -0 0  XYZ
  end
  begin
     id 2 
     name lfemur
     direction 0.34202 -0.939693 0  
     length 7.53653  
     axis 0 -0 20  XYZ
    dof rx ry rz
    limits (-160.0 20.0)
           (-70.0 70.0)
           (-60.0 70.0)
  end
  begin
     id 3 
     name ltibia
     direction 0.34202 -0.939693 0   
     length 6.85572   
     axis 0 -0 20   XYZ
    dof rx
    limits (-10.0 170.0)
  end
  begin
     id 4 
     name lfoot
     direction 0.155313 -0.426718 0.890949   
     length 2.18324   
     axis -90 -1.13533e-015 20   XYZ
    dof rx rz
    limits (-45.0 90.0)
           (-70.0 20.0)
  end
  begin
     id 5 
     name ltoes
     direction 1.53474e-011 -4.21647e-011 1   
     length 1.06748   
     axis -90 -1.13533e-015 20   XYZ
    dof rx
    limits (-90.0 20.0)
  end
  begin
     id 6 
     name rhipjoint
     direction -0.632471 -0.659587 0.406111   
     length 2.62319  
     axis 0 -0 0  XYZ 
  end
  begin
     id 7 
     name rfemur
     direction -0.34202 -0.939693 0   
     length 7.21735   
     axis 0 -0 -20   XYZ
    dof rx ry rz
    limits (-160.0 20.0)
           (-70.0 70.0)
           (-70.0 60.0)
  end
  begin
     id 8 
     name rtibia
     direction -0.34202 -0.939693 0   
     length 7.02558   
     axis 0 -0 -20   XYZ
    dof rx
    limits (-10.0 170.0)
 end
 begin
     id 9 
     name rfoot
     direction -0.16057 -0.441164 0.882945   
     length 2.10014  
     axis -90 1.13533e-015 -20   XYZ
    dof rx rz
    limits (-45.0 90.0)
           (-20.0 70.0)
  end
  begin
     id 10 
     name rtoes
     direction -1.53553e-011 -4.2192e-011 1   
     length 1.02554   
     axis -90 1.13533e-015 -20   XYZ
    dof rx
    limits (-90.0 20.0)
  end
  begin
     id 11 
     name lowerback
     direction 0.0401429 0.998861 -0.0258085   
     length 1.80848   
     axis 0 -0 0   XYZ
    dof rx ry rz
    limits (-20.0 45.0)
           (-30.0 30.0)
           (-30.0 30.0)
  end
  begin
     id 12 
     name upperback
     direction -0.0130978 0.999914 -0.000352645   
     length 1.8116   
     axis 0 -0 0   XYZ
    dof rx ry rz
    limits (-20.0 45.0)
           (-30.0 30.0)
           (-30.0 30.0)
  end
  begin
     id 13 
     name thorax
     direction -0.0300198 0.999453 0.0138573   
     length 1.81778   
     axis 0 -0 0   XYZ
    dof rx ry rz
    limits (-20.0 45.0)
           (-30.0 30.0)
           (-30.0 30.0)
  end
  begin
     id 14 
     name lowerneck
     direction -0.0401726 0.999191 -0.00173647   
     length 2.10594   
     axis 0 -0 0   XYZ
    dof rx ry rz
    limits (-20.0 45.0)
           (-30.0 30.0)
           (-30.0 30.0)
  end
  begin
     id 15 
     name upperneck
     direction 0.0119835 0.998501 0.0534085   
     length 2.07325   
     axis 0 -0 0   XYZ
    dof rx ry rz
    limits (-20.0 45.0)
           (-30.0 30.0)
           (-30.0 30.0)
  end
  begin
     id 16
     name head
     direction 0.00628309 0.999826 0.0175921  
     length 2.15096  
     axis 0 -0 0   XYZ
    dof rx ry rz
    limits (-20.0 45.0)
           (-30.0 30.0)
           (-30.0 30.0)
  end
  begin
     id 17 
     name lclavicle
     direction 0.895501 0.429681 -0.115981  
     length 4.18092  
     axis 0 -0 0   XYZ
    dof ry rz
    limits (-20.0 10.0)
           (0.0 20.0)
  end
  begin
     id 18 
     name lhumerus
     direction 1 -4.48961e-011 -3.38433e-028   
     length 5.77237   
     axis 180 -30 -90   XYZ
    dof rx ry rz
    limits (-60.0 90.0)
           (-90.0 90.0)
           (-90.0 90.0)
  end
  begin
     id 19
     name lradius
     direction 1 -4.4901e-011 1.11983e-026   
     length 2.91878   
     axis 180 -30 -90   XYZ
    dof rx
    limits (-10.0 170.0)
  end
  begin
     id 20
     name lwrist
     direction 1 -4.48934e-011 1.88176e-026   
     length 1.45939   
     axis -1.23311e-014 90 90   XYZ
    dof ry
    limits (-180.0 0.0)
 end
  begin
     id 21 
     name lhand
     direction 1 -4.4895e-011 3.76352e-026   
     length 1.06566   
     axis -2.40147e-014 90 90   XYZ
    dof rx rz
    limits (-90.0 90.0)
           (-45.0 45.0)
  end
  begin
     id 22 
     name lfingers
     direction 1 -4.49005e-011 7.52705e-026   
     length 0.859162   
     axis -4.80295e-014 90 90   XYZ
    dof rx
    limits (0.0 90.0)
  end
  begin
     id 23
     name lthumb
     direction 0.707107 -6.34885e-011 0.707107   
     length 1.23359   
     axis -90 45 -9.86935e-015   XYZ
    dof rx rz
    limits (-45.0 45.0)
           (-45.0 45.0)
  end
  begin
     id 24 
     name rclavicle
     direction -0.91006 0.40451 -0.0903492   
     length 4.23293  
     axis 0 -0 0   XYZ 
    dof ry rz
    limits (-10.0 20.0)
           (-20.0 0.0)
  end
  begin
     id 25 
     name rhumerus
     direction -1 -4.4897e-011 1.7415e-027  
     length 5.49854   
     axis 180 30 90   XYZ
    dof rx ry rz
    limits (-90.0 60.0)
           (-90.0 90.0)
           (-90.0 90.0)
  end
  begin
     id 26 
     name rradius
     direction -1 -4.48963e-011 1.21259e-026   
     length 3.1186   
     axis 180 30 90   XYZ
    dof rx
    limits (-10.0 170.0)
  end
  begin
     id 27 
     name rwrist
     direction -1 -4.48967e-011 1.88176e-026   
     length 1.5593   
     axis -1.23311e-014 -90 -90   XYZ
    dof ry
    limits (-180.0 0.0)
  end
  begin
     id 28
     name rhand
     direction -1 -4.4895e-011 3.76352e-026   
     length 0.71207   
     axis -2.40147e-014 -90 -90   XYZ
    dof rx rz
    limits (-90.0 90.0)
           (-45.0 45.0)
  end
  begin
     id 29
     name rfingers
     direction -1 -4.49005e-011 7.52705e-026   
     length 0.574089   
     axis -4.80295e-014 -90 -90   XYZ
    dof rx
    limits (0.0 90.0)
  end
  begin
     id 30
     name rthumb
     direction -0.707107 -6.34982e-011 0.707107   
     length 0.824281   
     axis -90 -45 9.86935e-015   XYZ
    dof rx rz
    limits (-45.0 45.0)
           (-45.0 45.0)
  end
:hierarchy
  begin
    root lhipjoint rhipjoint lowerback
    lhipjoint lfemur
    lfemur ltibia
    ltibia lfoot
    lfoot ltoes
    rhipjoint rfemur
    rfemur rtibia
    rtibia rfoot
    rfoot rtoes
    lowerback upperback
    upperback thorax
    thorax lowerneck lclavicle rclavicle
    lowerneck upperneck
    upperneck head
    lclavicle lhumerus
    lhumerus lradius
    lradius lwrist
    lwrist lhand lthumb
    lhand lfingers
    rclavicle rhumerus
    rhumerus rradius
    rradius rwrist
    rwrist rhand rthumb
    rhand rfingers
  end

#!OML:ASF C:\ViconDB\ViconDB\414\Spring2016\042216\male.ASF
:FULLY-SPECIFIED
:DEGREES
241
root -43.5269 16.9689 13.004 -157.532 83.247 -163.843
lowerback -0.867563 -0.940964 5.55014
upperback 0.390683 -1.31361 -1.20374
thorax 0.736615 -0.626007 -4.37515
lowerneck -2.83537 4.83256 -0.800276
upperneck -1.18699 6.48236 0.460649
head 0.0575803 3.25232 0.320097
rclavicle 3.32964e-015 7.55382e-015
rhumerus -14.2025 6.65795 -97.0787
rradius 51.2576
rwrist 1.35277
rhand -3.09748 -26.7013
rfingers 7.12502
rthumb 22.6204 -55.3958
lclavicle 3.32964e-015 7.55382e-015
lhumerus -42.5282 24.9395 73.9636
lradius 30.1351
lwrist -9.79622
lhand -16.4843 13.454
lfingers 7.12502
lthumb 9.73296 43.2091
rfemur -11.1878 1.54188 20.2275
rtibia 27.5398
rfoot -28.6275 -2.0593
rtoes -11.7278
lfemur -11.7633 -6.09851 -19.9123
ltibia 30.5235
lfoot -37.2909 14.5442
ltoes -14.2893
242
root -43.4647 16.9599 12.9846 -157.889 83.013 -164.42
lowerback -0.855132 -1.01875 5.48207
upperback 0.390014 -1.41632 -1.13038
thorax 0.720346 -0.678382 -4.26117
lowerneck -2.79255 4.64827 -1.12729
upperneck -1.4354 6.25035 0.784105
head -0.0428996 3.13987 0.462412
rclavicle 1.64494e-014 -1.59028e-014
rhumerus -13.9789 7.21017 -96.9222
rradius 52.5276
rwrist 0.714413
rhand -2.65039 -27.0666
rfingers 7.12502
rthumb 23.0495 -55.7082
lclavicle 1.64494e-014 -1.59028e-014
lhumerus -42.9732 25.5681 73.4489
lradius 30.0861
lwrist -10.3003
lhand -16.6382 13.9067
lfingers 7.12502
lthumb 9.58443 43.6686
rfemur -11.1572 1.45024 20.2141
rtibia 27.5612
rfoot -28.7051 -2.26129
rtoes -11.7592
lfemur -11.7879 -6.2631 -19.9226
ltibia 30.5416
lfoot -37.3798 14.5143
ltoes -14.0263
243
root -43.4013 16.9534 12.9675 -157.223 82.8836 -164.013
lowerback -0.836359 -0.961826 5.53155
upperback 0.410383 -1.34001 -1.17305
thorax 0.737454 -0.638862 -4.33262
lowerneck -2.81489 4.39027 -1.08847
upperneck -1.73115 5.91338 1.06211
head -0.132649 2.97377 0.534264
rclavicle -1.2424e-015 -8.34896e-015
rhumerus -13.7685 7.43738 -96.8571
rradius 53.6798
rwrist 0.563066
rhand -2.40491 -27.3965
rfingers 7.12502
rthumb 23.285 -56.0085
lclavicle -1.2424e-015 -8.34896e-015
lhumerus -42.9695 24.7036 73.9966
lradius 30.8544
lwrist -10.6068
lhand -16.8181 16.9868
lfingers 7.12502
lthumb 9.41085 46.7567
rfemur -11.1808 1.54502 20.275
rtibia 27.6002
rfoot -28.8037 -2.47459
rtoes -11.6376
lfemur -11.8497 -6.20203 -19.8433
ltibia 30.5675
lfoot -37.5065 14.5175
ltoes -13.9525
244
root -43.3338 16.9435 12.9499 -157.713 82.6755 -164.747
lowerback -0.894152 -1.01145 5.48594
upperback 0.444667 -1.40932 -1.21582
thorax 0.797212 -0.671076 -4.35357
lowerneck -2.84703 4.21914 -1.11024
upperneck -1.95987 5.69441 1.33259
head -0.202864 2.86635 0.616341
rclavicle -2.26118e-014 -1.59028e-015
rhumerus -13.6181 7.79208 -96.8666
rradius 54.7605
rwrist 0.0997432
rhand -2.37352 -27.8473
rfingers 7.12502
rthumb 23.3151 -56.4555
lclavicle -2.26118e-014 -1.59028e-015
lhumerus -43.2223 24.9425 73.5876
lradius 30.7392
lwrist -11.0002
lhand -17.2197 17.3755
lfingers 7.12502
lthumb 9.02336 47.1625
rfemur -11.1954 1.18315 20.2277
rtibia 27.6749
rfoot -28.876 -2.60394
rtoes -11.6282
lfemur -11.8781 -6.2098 -19.8762
ltibia 30.5779
lfoot -37.5884 14.4759
ltoes -13.913
245
root -43.2624 16.9342 12.9298 -157.705 82.4726 -165.089
lowerback -1.02389 -1.01862 5.49008
upperback 0.446848 -1.42631 -1.22987
thorax 0.869901 -0.677286 -4.37357
lowerneck -2.78439 3.97691 -1.33483
upperneck -2.34842 5.39167 1.73696
head -0.344943 2.71815 0.768931
rclavicle -2.13694e-015 5.56597e-015
rhumerus -13.5338 8.19132 -96.7853
rradius 55.8147
rwrist 0.185066
rhand -2.18328 -28.2088
rfingers 7.12502
rthumb 23.4976 -56.7937
lclavicle -2.13694e-015 5.56597e-015
lhumerus -43.5015 25.3156 73.0264
lradius 30.4311
lwrist -11.7644
lhand -17.4587 17.2659
lfingers 7.12502
lthumb 8.79274 47.0628
rfemur -11.3402 0.689805 20.2135
rtibia 27.7936
rfoot -28.9313 -2.67836
rtoes -12.0776
lfemur -12.0158 -5.92723 -19.8485
ltibia 30.585
lfoot -37.7061 14.2509
ltoes -14.1535
246
root -43.1903 16.9256 12.9139 -157.228 82.3673 -164.96
lowerback -1.21799 -0.998921 5.37542
upperback 0.486329 -1.41045 -1.18166
thorax 1.02528 -0.66462 -4.26336
lowerneck -2.67297 3.79127 -1.4949
upperneck -2.77444 5.16265 1.98961
head -0.501061 2.6057 0.865226
rclavicle -4.96962e-015 5.56597e-015
rhumerus -13.4028 8.5263 -96.6489
rradius 56.6892
rwrist 0.45967
rhand -2.08373 -28.2449
rfingers 7.12502
rthumb 23.5931 -56.8176
lclavicle -4.96962e-015 5.56597e-015
lhumerus -43.7386 25.8965 72.4629
lradius 30.2647
lwrist -11.6773
lhand -17.4941 16.9811
lfingers 7.12502
lthumb 8.75851 46.7794
rfemur -11.5518 0.308146 20.2542
rtibia 27.9851
rfoot -28.8463 -2.71653
rtoes -12.3666
lfemur -12.1453 -5.30154 -19.7639
ltibia 30.564
lfoot -37.9048 13.7637
ltoes -14.243
